<?xml version="1.0" encoding="UTF-8" standalone="no"?>
<svg width="365px" height="55px" viewBox="0 0 365 55" version="1.1" xmlns="http://www.w3.org/2000/svg" xmlns:xlink="http://www.w3.org/1999/xlink" xmlns:sketch="http://www.bohemiancoding.com/sketch/ns" data-adreal-did="1493378696423508">
    <!-- Generator: Sketch 3.3.3 (12072) - http://www.bohemiancoding.com/sketch -->
    <title>logo</title>
    <desc>Created with Sketch.</desc>
    <defs/>
    <g id="Page-1" stroke="none" stroke-width="1" fill="none" fill-rule="evenodd" sketch:type="MSPage">
        <g id="logo" sketch:type="MSLayerGroup">
            <path d="M159.832695,30.3890312 C160.348886,27.4213586 160.127416,24.7531849 159.168285,22.384265 C158.209154,20.0155902 156.676748,18.1362806 154.571559,16.7462138 C152.466125,15.3560245 149.952416,14.6454343 147.029944,14.6137082 C144.109187,14.6450668 141.339098,15.356637 138.719922,16.7478062 C136.101114,18.139098 133.871592,20.0219599 132.031849,22.396392 C130.192227,24.771069 128.980512,27.4489198 128.397194,30.4298218 C127.882105,33.3569488 128.109944,35.993029 129.081203,38.3379399 C130.051971,40.6827283 131.593931,42.5448886 133.706592,43.9245434 C135.819131,45.3044432 138.330512,46.0100111 141.240612,46.0419822 C144.148018,46.0095212 146.908552,45.3002784 149.521726,43.9141314 C152.135267,42.5278619 154.360746,40.6590869 156.19951,38.3078062 C158.038151,35.9562806 159.249131,33.3167706 159.832695,30.3890312 L159.832695,30.3890312 Z M168.723096,30.4235746 C167.80941,35.0076837 165.913196,39.1402784 163.034577,42.8217261 C160.155958,46.5031737 156.670869,49.4290757 152.579432,51.5994321 C148.487873,53.7699109 144.166024,54.8804454 139.613396,54.9310356 C135.057461,54.8811804 131.125512,53.7762806 127.817673,51.6160913 C124.509955,49.4557795 122.095958,46.5402895 120.575802,42.8688864 C119.055401,39.1977283 118.698575,35.0705234 119.504833,30.4875167 C120.418151,25.8199889 122.315223,21.6274944 125.195557,17.9095434 C128.076258,14.1920824 131.566982,11.2438864 135.667483,9.06556793 C139.768107,6.88724944 144.105022,5.77340757 148.678352,5.72453229 C153.253641,5.77402004 157.189633,6.88688196 160.485835,9.06311804 C163.782038,11.2393541 166.181214,14.1820379 167.682751,17.8906793 C169.184655,21.5993207 169.531559,25.7771158 168.723096,30.4235746 L168.723096,30.4235746 Z" id="Fill-1" fill="#9E9F9E" sketch:type="MSShapeGroup"/>
            <path d="M34.2898664,19.0014588 C34.682216,16.7566258 34.4562138,14.6875724 33.6117372,12.7938085 C32.7671381,10.9000445 31.4399109,9.43733853 29.6298107,8.40532294 C27.8263252,7.46505568 25.8792762,6.92007795 23.7886637,6.76965479 C21.6980512,6.61947661 19.5595434,6.56876392 17.3730178,6.61812918 L8.81910913,6.61812918 L0.0732516704,53.7822829 L11.8830624,53.7822829 C14.1680735,53.7395323 16.4768486,53.537784 18.8093875,53.1764254 C21.1421715,52.8149443 23.3870045,51.9753675 25.5442539,50.6572049 C27.6269042,49.2769376 29.3345991,47.6369822 30.667216,45.737706 C31.9997105,43.8383073 32.9094766,41.735078 33.396147,39.4278953 C33.8709354,36.7136637 33.6075724,34.3545434 32.6064254,32.3505345 C31.6047884,30.3464031 29.8891314,28.8969265 27.4593318,28.0019822 C29.3758797,27.1082628 30.9051002,25.8635969 32.0477283,24.2677394 C33.1901114,22.671882 33.9375724,20.9166592 34.2898664,19.0014588 L34.2898664,19.0014588 Z M25.4164922,19.7037194 C25.2463474,20.6186303 24.8527728,21.4697216 24.2355234,22.2568708 C23.6185189,23.044265 22.8419042,23.6399555 21.9055568,24.0441871 C20.9864811,24.408608 19.9838641,24.6215033 18.897216,24.6826281 C17.8108129,24.7437528 16.7919042,24.7649443 15.84098,24.7465702 L14.1813029,24.7465702 L15.9684967,15.1078508 L17.5647216,15.1078508 C18.5155234,15.0785746 19.5023385,15.0573831 20.5250445,15.0440312 C21.5477506,15.0305568 22.4548218,15.2008241 23.2461359,15.5547105 C24.0625612,15.9109243 24.6796882,16.4427951 25.0972717,17.1503229 C25.5151002,17.8578508 25.6214254,18.7089421 25.4164922,19.7037194 L25.4164922,19.7037194 Z M24.7143541,39.0447327 C24.5015813,40.0343653 24.145,40.9120379 23.6452227,41.6779955 C23.145078,42.4438307 22.4374276,43.098196 21.5223942,43.6407238 C20.2537194,44.3801002 19.0088085,44.8482739 17.788029,45.045 C16.5671269,45.2418486 15.3223385,45.3271047 14.0535412,45.3004009 L10.4147216,45.3004009 L12.64902,33.2362918 L16.4791759,33.2362918 C17.5393653,33.2122829 18.5792205,33.2442539 19.5993541,33.3319599 C20.6194878,33.4197884 21.5797216,33.7069154 22.4800557,34.1935857 C23.4108909,34.782784 24.0706459,35.4556459 24.4590757,36.2124165 C24.8473831,36.9689421 24.9323942,37.9132517 24.7143541,39.0447327 L24.7143541,39.0447327 Z" id="Fill-2" fill="#D9222A" sketch:type="MSShapeGroup"/>
            <path d="M69.6424944,15.0996437 L71.2385969,6.61812918 L45.8952339,6.61812918 L37.1494989,53.7822829 L62.4927394,53.7822829 L64.0887194,45.3004009 L47.4909688,45.3004009 L49.4701114,34.4410245 L65.3656013,34.4410245 L66.9614588,25.9591425 L51.0660913,25.9591425 L53.0448664,15.0996437 L69.6424944,15.0996437" id="Fill-3" fill="#D9222A" sketch:type="MSShapeGroup"/>
            <path d="M108.595111,53.7822829 L117.340724,6.61812918 L108.595111,6.61812918 L102.211437,41.0815702 L88.9332851,6.61812918 L79.1024944,6.61812918 L70.356637,53.7822829 L79.1024944,53.7822829 L85.4861693,19.4461136 L98.8918374,53.7822829 L108.595111,53.7822829" id="Fill-4" fill="#D9222A" sketch:type="MSShapeGroup"/>
            <path d="M207.465757,20.9761915 C207.928419,18.5492094 207.800902,16.2987416 207.08284,14.2247884 C206.364532,12.1509577 205.15147,10.4444878 203.443898,9.10525612 C202.183185,8.13669265 200.778786,7.47497773 199.230702,7.12035635 C197.682862,6.76561247 196.086759,6.59816258 194.443007,6.61812918 L180.015735,6.61812918 L171.27,53.7822829 L180.015735,53.7822829 L183.335212,35.9092428 L188.633831,35.9092428 C190.503831,35.9330067 192.381548,35.7417929 194.267472,35.3352339 C196.153151,34.9285523 197.935323,34.1633296 199.613864,33.0394432 C201.788263,31.5168374 203.535768,29.7143318 204.856381,27.632294 C206.177116,25.5501336 207.046826,23.3315145 207.465757,20.9761915 L207.465757,20.9761915 Z M198.719777,21.1039532 C198.444655,22.49598 197.830345,23.7041425 196.876849,24.7288085 C195.923229,25.7534744 194.7501,26.4825612 193.357706,26.916314 C192.815178,27.0773942 192.256481,27.2025835 191.681982,27.2917595 C191.107483,27.3808129 190.516938,27.4260134 189.910345,27.4274833 L184.931069,27.4274833 L187.165367,15.0996437 L192.017127,15.0996437 C193.240724,15.0998886 194.304588,15.2275278 195.208964,15.4830512 C196.476414,15.8450223 197.436526,16.510412 198.089666,17.479098 C198.742684,18.4479065 198.952884,19.6561915 198.719777,21.1039532 L198.719777,21.1039532 Z" id="Fill-5" fill="#1A1918" sketch:type="MSShapeGroup"/>
            <path d="M230.22951,53.7822829 L231.825245,45.3004009 L217.398218,45.3004009 L224.547973,6.61812918 L215.802361,6.61812918 L207.056626,53.7822829 L230.22951,53.7822829" id="Fill-6" fill="#1A1918" sketch:type="MSShapeGroup"/>
            <path d="M267.918474,53.7822829 L277.557929,53.7822829 L266.450134,6.61812918 L259.619722,6.61812918 L231.21216,53.7822829 L240.851615,53.7822829 L248.320345,41.590167 L265.045735,41.590167 L267.918474,53.7822829 L267.918474,53.7822829 Z M260.832539,18.8098775 L263.194232,33.1085301 L253.108163,33.1085301 L260.832539,18.8098775 L260.832539,18.8098775 Z" id="Fill-7" fill="#1A1918" sketch:type="MSShapeGroup"/>
            <path d="M305.767294,19.1226058 L314.76843,19.1226058 C315.342684,15.3252784 314.544878,12.166882 312.374399,9.647049 C310.204042,7.12758352 307.235757,5.81995546 303.469053,5.72453229 C300.940033,5.74805122 298.515134,6.33835189 296.194109,7.49604677 C293.873207,8.65361915 291.892595,10.2364922 290.252762,12.2451559 C288.612684,14.2536971 287.549187,16.5460579 287.063129,19.1226058 C286.72235,20.7772606 286.733252,22.4001893 287.094978,23.990902 C287.456704,25.5817372 288.105557,26.9812361 289.041782,28.1889087 C290.028719,29.3953563 291.135212,30.3026726 292.361381,30.9106125 C293.58755,31.5184298 294.949443,32.0583853 296.44706,32.5307238 C297.675067,32.9176837 298.8651,33.4134187 300.01716,34.0179287 C301.169465,34.6226837 302.066492,35.4400891 302.707996,36.4702673 C303.349254,37.5004454 303.518051,38.8476392 303.213898,40.5114811 C302.810891,42.23951 301.924889,43.6521158 300.556503,44.7492984 C299.187873,45.846971 297.647873,46.4136303 295.936381,46.4493987 C294.102272,46.4414365 292.66333,45.9306347 291.619555,44.9169933 C290.575535,43.9034744 290.205479,42.4350111 290.510367,40.5114811 L281.38147,40.5114811 C280.906559,43.2818151 281.175189,45.7476281 282.187973,47.9095323 C283.200145,50.071314 284.74088,51.7757016 286.810056,53.0223274 C288.879477,54.2695657 291.261626,54.9055568 293.957361,54.9310356 C296.7849,54.9028619 299.47157,54.2367372 302.017249,52.932784 C304.563419,51.6285857 306.729978,49.8565813 308.517171,47.6162806 C310.303875,45.3761024 311.47284,42.8376503 312.023452,40.0009243 C312.842817,35.4676503 311.84265,31.8921604 309.022951,29.2743318 C307.888408,28.1914811 306.598664,27.3403898 305.152739,26.7204454 C303.707183,26.1006236 302.209566,25.5046882 300.660256,24.9325167 C299.266392,24.4658129 298.032261,23.8195323 296.957739,22.9931849 C295.882973,22.1673274 295.478987,20.8982851 295.7448,19.1864254 C296.022862,17.7499332 296.663753,16.5684744 297.66784,15.6426615 C298.672049,14.7168486 299.903853,14.2380178 301.362639,14.2060468 C302.775122,14.223441 303.908196,14.6676058 304.761982,15.5389087 C305.615891,16.4102116 305.950913,17.6047773 305.767294,19.1226058" id="Fill-8" fill="#1A1918" sketch:type="MSShapeGroup"/>
            <path d="M345.038886,15.0996437 L346.634866,6.61812918 L320.398029,6.61812918 L318.801804,15.0996437 L327.483842,15.0996437 L320.334209,53.7822829 L329.079944,53.7822829 L336.229454,15.0996437 L345.038886,15.0996437" id="Fill-9" fill="#1A1918" sketch:type="MSShapeGroup"/>
            <path d="M357.406414,13.8138196 C358.926448,13.7208463 360.231381,13.1287082 361.322439,12.0359354 C362.529499,10.8282628 363.134131,9.3653118 363.134131,7.64597996 C363.134131,5.95359688 362.529499,4.50473274 361.322439,3.29693764 C360.220479,2.19510022 358.914933,1.59463252 357.406414,1.49908686 L356.972661,1.48561247 C355.254677,1.48561247 353.791971,2.09122494 352.583808,3.29693764 C351.389978,4.49297327 350.793797,5.94073497 350.793797,7.64597996 C350.793797,9.3653118 351.389978,10.8282628 352.583808,12.0359354 C353.791971,13.2318486 355.254677,13.8271715 356.972661,13.8271715 L357.406414,13.8138196 L357.406414,13.8138196 Z M357.406414,0.0797438753 C359.317572,0.176024499 360.958263,0.91564588 362.325791,2.29395323 C363.808463,3.76351893 364.553107,5.54826281 364.553107,7.64597996 C364.553107,9.74626949 363.808463,11.538363 362.325791,13.0209131 C360.947483,14.3999555 359.308263,15.1370045 357.406414,15.2332851 L356.972661,15.2445546 C354.859633,15.2445546 353.062394,14.5103229 351.581314,13.0410022 C350.111381,11.5575947 349.375802,9.76047884 349.375802,7.64597996 C349.375802,5.54826281 350.111381,3.76351893 351.581314,2.29395323 C353.062394,0.812383073 354.859633,0.0688418708 356.972661,0.0688418708 L357.406414,0.0797438753 L357.406414,0.0797438753 Z M357.406414,3.59361915 L357.800111,3.59361915 C358.352194,3.59361915 358.777494,3.61297327 359.078831,3.652049 C359.392906,3.69185969 359.716414,3.81717149 360.043842,4.02639198 C360.373597,4.22348552 360.606581,4.51061247 360.751492,4.89181514 C360.909633,5.25929844 360.986804,5.6672049 360.986804,6.11198218 C360.986804,7.58081292 360.240323,8.31675947 358.745523,8.31675947 L360.732261,11.7812695 L358.881982,11.7812695 L357.051303,8.31675947 L355.438419,8.31675947 L355.438419,11.7812695 L353.843786,11.7812695 L353.843786,3.59361915 L357.406414,3.59361915 L357.406414,3.59361915 Z M357.406414,7.09646993 L357.859644,7.09646993 C358.359176,7.09646993 358.732416,7.01880846 358.981203,6.86054566 C359.242238,6.68978842 359.375022,6.36064588 359.375022,5.87569042 C359.375022,5.39085746 359.19716,5.08841871 358.843519,4.97033408 C358.48853,4.83951002 358.016069,4.77275056 357.425891,4.77275056 L355.438419,4.77275056 L355.438419,7.09646993 L357.406414,7.09646993 L357.406414,7.09646993 Z" id="Fill-10" fill="#1A1918" sketch:type="MSShapeGroup"/>
        </g>
    </g>
</svg>